# xmcd
#
# Track frame offsets: 
#        150
#        17240
#        33674
#        49892
#        65715
#        83314
#        99049
#        116986
#        132482
#        149710
#
# Disc length: 2199 seconds
#
# Revision: 0
# Processed by: cddbd v1.5.1PL2 Copyright (c) Steve Scherf et al.
# Submitted via: ExactAudioCopy v0.95b4
#
DISCID=8f08950a
DTITLE=3REI SUD EST - 3SE
DYEAR=1998
DGENRE=Dance
TTITLE0=3SE
TTITLE1=Ai plecat
TTITLE2=Vino langa mine (feat GABRIELA)
TTITLE3=Te chem acum
TTITLE4=Crede-ma
TTITLE5=Te vreau in viata mea
TTITLE6=Lory
TTITLE7=Nu te mai iubesc
TTITLE8=Nu ma uita
TTITLE9=Viata de turneu
EXTD=
EXTT0=
EXTT1=
EXTT2=
EXTT3=
EXTT4=
EXTT5=
EXTT6=
EXTT7=
EXTT8=
EXTT9=
PLAYORDER=
